<?xml version="1.0" standalone="no"?>
<!DOCTYPE svg PUBLIC "-//W3C//DTD SVG 20010904//EN"
 "http://www.w3.org/TR/2001/REC-SVG-20010904/DTD/svg10.dtd">
<svg version="1.0" xmlns="http://www.w3.org/2000/svg"
 width="256.000000pt" height="308.000000pt" viewBox="0 0 256.000000 308.000000"
 preserveAspectRatio="xMidYMid meet">

<g transform="translate(0.000000,308.000000) scale(0.100000,-0.100000)"
fill="#000000" stroke="none">
<path d="M699 3070 c-69 -9 -73 -11 -106 -63 -24 -38 -26 -49 -25 -152 0 -60
-4 -126 -9 -145 -14 -58 -72 -103 -174 -139 -103 -36 -146 -71 -172 -140 -9
-25 -43 -84 -74 -131 -31 -47 -60 -95 -64 -108 -3 -12 1 -47 10 -77 20 -70 73
-125 163 -168 88 -43 101 -53 141 -109 19 -26 38 -45 42 -42 18 11 2 -97 -36
-246 -16 -62 -51 -241 -60 -310 -3 -25 -8 -110 -9 -190 -3 -127 -7 -153 -29
-210 -37 -96 -41 -142 -27 -338 l12 -177 -32 -90 c-27 -78 -38 -96 -82 -136
-56 -50 -59 -72 -13 -89 42 -16 126 -11 172 9 52 24 55 36 51 226 l-3 140 55
165 55 165 0 145 0 145 81 200 c45 110 85 218 88 240 14 78 27 115 41 115 8 0
17 -15 21 -37 18 -111 41 -182 105 -332 87 -204 97 -245 81 -343 -13 -85 -12
-87 57 -309 55 -176 59 -207 51 -381 -4 -83 -2 -99 14 -116 32 -36 166 -54
215 -29 39 19 36 32 -19 84 -40 38 -56 64 -80 128 l-30 80 6 220 7 220 -31 90
c-28 83 -31 104 -36 265 -3 112 -12 206 -24 262 l-18 86 31 -26 c113 -96 156
-132 159 -132 1 0 -4 30 -11 68 -29 137 17 256 127 333 33 23 44 24 235 29
230 7 285 21 354 91 49 49 68 102 92 263 28 195 69 259 163 259 65 0 147 -44
234 -127 88 -84 78 -50 -12 39 -78 78 -158 119 -270 141 -107 21 -196 13 -436
-41 -84 -19 -170 -35 -191 -35 -62 0 -139 20 -221 57 -71 32 -80 40 -108 90
-35 62 -65 83 -170 119 -41 14 -100 38 -130 52 l-55 28 2 79 c2 44 4 108 5
143 l3 63 59 34 59 33 -37 7 -37 7 27 29 28 29 -80 -1 c-43 -1 -104 -5 -135
-9z m-229 -1029 c0 -76 -8 -101 -28 -94 -48 15 -64 31 -96 97 -19 39 -48 84
-65 100 -17 17 -31 33 -31 37 0 3 12 12 28 18 15 6 45 27 67 45 l39 34 43 -90
c35 -74 43 -101 43 -147z"/>
</g>
</svg>
